<svg width="623" height="640" viewBox="0 0 623 640" fill="none" xmlns="http://www.w3.org/2000/svg">
<path d="M618.971 247.594C612.052 162.281 608.592 119.624 592.488 92.0265C546.378 13.005 412.319 -5.78946 327.65 1.41776C214.298 11.0639 84.6249 76.2258 27.5449 202.037C-24.2988 316.309 -0.393424 445.658 77.7237 530.272C220.925 685.383 516.316 657.689 588.475 555.908C617.272 515.289 619.348 450.41 622.399 355.106C623.865 309.23 621.004 272.671 618.971 247.594Z" fill="#F4F7FA"/>
<path d="M418.344 27.166L417.641 32.2038C415.305 32.3111 413.008 32.6126 410.772 33.115L408.867 28.4152C408.349 27.1341 406.881 26.5243 405.59 27.0564L397.513 30.3837C396.22 30.9158 395.59 32.3911 396.106 33.6745L398.02 38.4336C396.063 39.6805 394.213 41.0918 392.491 42.6538L388.435 39.5069C387.339 38.6574 385.75 38.8675 384.884 39.9774L379.458 46.9197C378.588 48.0318 378.773 49.6258 379.869 50.4776L383.941 53.6428C382.856 55.6798 381.945 57.831 381.21 60.0758L376.042 59.3976C374.654 59.2149 373.361 60.1992 373.155 61.5968L371.856 70.3523C371.648 71.7545 372.607 73.0425 373.998 73.2252L379.182 73.9057C379.244 76.2693 379.502 78.594 379.961 80.8571L375.097 82.885C373.786 83.4308 373.142 84.9403 373.658 86.2534L376.898 94.4883C377.417 95.8083 378.903 96.4317 380.219 95.8813L385.085 93.8443C386.309 95.8357 387.705 97.7128 389.253 99.4575L386.01 103.669C385.133 104.808 385.32 106.439 386.43 107.311L393.382 112.764C394.494 113.637 396.109 113.418 396.983 112.273L400.187 108.09C402.233 109.179 404.398 110.086 406.657 110.81L405.928 116.03C405.73 117.46 406.705 118.768 408.107 118.951L416.883 120.102C418.287 120.287 419.582 119.275 419.779 117.846L420.487 112.664C422.873 112.561 425.218 112.253 427.5 111.739L429.425 116.526C429.959 117.855 431.455 118.483 432.766 117.928L440.95 114.459C442.259 113.904 442.882 112.381 442.346 111.056L440.421 106.304C442.419 105.014 444.301 103.55 446.045 101.931L450.046 105.041C451.165 105.911 452.768 105.692 453.627 104.552L458.987 97.4456C459.843 96.3107 459.631 94.6915 458.514 93.826L454.55 90.7522C455.63 88.6581 456.527 86.4453 457.24 84.141L462.195 84.7919C463.586 84.9746 464.86 83.9812 465.041 82.5745L466.167 73.7961C466.347 72.3962 465.367 71.1128 463.979 70.9301L459.037 70.2815C458.934 67.8882 458.633 65.5406 458.126 63.2593L462.709 61.341C463.997 60.802 464.607 59.3131 464.072 58.016L460.725 49.9227C460.19 48.6301 458.715 48.0181 457.427 48.5548L452.816 50.4776C451.56 48.5068 450.14 46.6479 448.562 44.9283L451.608 40.9525C452.456 39.8449 452.248 38.2623 451.147 37.4151L444.262 32.1239C443.161 31.2789 441.583 31.4867 440.733 32.5897L437.669 36.5701C435.636 35.5151 433.49 34.6382 431.249 33.9439L431.932 28.945C432.119 27.5702 431.158 26.3074 429.781 26.127L421.179 24.9988C419.808 24.823 418.536 25.789 418.344 27.166ZM388.015 67.9727C390.502 50.6717 406.38 38.5432 423.496 40.7881C440.612 43.0329 452.634 58.8221 450.334 76.146C448.021 93.5771 432.108 105.943 414.805 103.675C397.502 101.405 385.515 85.3788 388.015 67.9727Z" fill="#D8DEE8"/>
<path d="M286.436 24.4344L285.349 32.224C281.738 32.3884 278.185 32.8543 274.727 33.6307L271.784 26.3641C270.98 24.3819 268.712 23.441 266.719 24.2632L254.229 29.4082C252.231 30.2327 251.256 32.5095 252.055 34.4985L255.015 41.8565C251.989 43.7839 249.128 45.9648 246.467 48.3832L240.187 43.5167C238.495 42.2036 236.035 42.5301 234.697 44.2429L226.307 54.9761C224.962 56.6957 225.247 59.1598 226.942 60.4774L233.238 65.3736C231.562 68.5228 230.15 71.85 229.013 75.3189L221.023 74.2707C218.878 73.9898 216.88 75.5107 216.558 77.6711L214.551 91.2109C214.229 93.3804 215.713 95.3694 217.864 95.6503L225.878 96.7008C225.974 100.355 226.371 103.951 227.083 107.45L219.563 110.585C217.535 111.43 216.54 113.762 217.339 115.794L222.349 128.526C223.151 130.565 225.451 131.531 227.483 130.679L235.008 127.53C236.899 130.609 239.057 133.511 241.452 136.208L236.44 142.719C235.083 144.482 235.373 147.003 237.09 148.35L247.84 156.782C249.559 158.131 252.055 157.791 253.409 156.023L258.363 149.556C261.526 151.241 264.876 152.644 268.367 153.763L267.239 161.835C266.931 164.046 268.438 166.069 270.61 166.352L284.179 168.131C286.349 168.417 288.354 166.853 288.655 164.642L289.752 156.631C293.442 156.473 297.068 155.996 300.594 155.201L303.57 162.603C304.397 164.658 306.71 165.628 308.736 164.77L321.392 159.408C323.413 158.551 324.379 156.195 323.547 154.144L320.57 146.795C323.659 144.802 326.569 142.536 329.268 140.033L335.452 144.843C337.181 146.188 339.659 145.847 340.988 144.089L349.275 133.102C350.597 131.348 350.271 128.843 348.544 127.505L342.415 122.755C344.087 119.515 345.473 116.094 346.574 112.533L354.238 113.538C356.389 113.821 358.36 112.285 358.638 110.11L360.378 96.5364C360.657 94.3692 359.141 92.387 356.996 92.1061L349.355 91.1036C349.198 87.404 348.732 83.773 347.946 80.2471L355.035 77.2806C357.028 76.447 357.971 74.1451 357.14 72.1401L351.963 59.6256C351.136 57.6274 348.855 56.682 346.866 57.511L339.739 60.482C337.798 57.4333 335.598 54.5605 333.162 51.9046L337.871 45.757C339.181 44.0465 338.862 41.5984 337.156 40.2876L326.509 32.1075C324.808 30.8013 322.367 31.1233 321.054 32.8292L316.313 38.9836C313.168 37.3531 309.85 35.9966 306.388 34.921L307.445 27.1908C307.735 25.0647 306.246 23.1145 304.12 22.8359L290.818 21.0912C288.697 20.8125 286.733 22.3083 286.436 24.4344ZM239.541 87.5296C243.384 60.7789 267.936 42.0255 294.399 45.4966C320.862 48.9678 339.449 73.3801 335.895 100.167C332.319 127.117 307.717 146.24 280.964 142.73C254.209 139.223 235.672 114.44 239.541 87.5296Z" fill="#D8DEE8"/>
<path d="M273.708 99.8636L215.53 583.437C214.658 590.688 219.654 597.187 226.656 597.882L468.98 624.486C483.823 625.409 491.951 617.825 492.869 610.115L553.95 95.9951C554.861 88.3288 547.578 81.3842 532.671 81.3842L288.143 86.5339C281.062 86.6549 274.576 92.6518 273.708 99.8636Z" fill="url(#paint0_linear_6_11)"/>
<path d="M262.802 99.0326L204.304 585.025C203.427 592.312 208.442 598.846 215.466 599.544L466.687 624.557C474.563 625.341 481.782 619.643 482.702 611.894L544.126 95.1184C545.041 87.4111 539.257 81.2178 531.294 81.3525L277.287 85.639C270.185 85.7554 263.674 91.7843 262.802 99.0326Z" fill="url(#paint1_linear_6_11)"/>
<path d="M267.57 125.838L213.349 576.449C212.529 583.257 217.227 589.35 223.801 589.989L460.066 612.956C467.388 613.669 474.097 608.35 474.956 601.136L531.721 123.755C532.575 116.58 527.203 110.773 519.807 110.853L281.116 113.394C274.473 113.463 268.385 119.065 267.57 125.838Z" fill="#D8DEE8"/>
<path d="M394.267 98.6967C393.957 101.284 395.813 103.355 398.417 103.321C401.022 103.289 403.388 101.161 403.699 98.5688C404.01 95.9769 402.146 93.9056 399.54 93.9444C396.935 93.9832 394.576 96.1116 394.267 98.6967Z" fill="url(#paint2_linear_6_11)"/>
<path d="M308.417 428.318C356.785 338.892 429.042 312.123 450.796 219.959C462.555 170.141 454.544 122.458 441.05 82.8735L531.298 81.3502C539.261 81.2155 545.045 87.4111 544.129 95.1161L482.706 611.892C481.786 619.643 474.567 625.341 466.691 624.555L269.207 604.893C267.743 524.764 286.855 468.179 308.417 428.318Z" fill="white"/>
<path d="M24.2913 150.317C24.2913 102.799 65.742 64.2849 115.485 64.2894C163.757 64.294 201.853 100.782 201.853 145.786C201.853 190.79 163.757 229.222 115.485 231.691C65.7397 234.235 24.2913 197.836 24.2913 150.317Z" fill="url(#paint3_linear_6_11)"/>
<path d="M29.6533 146.528C29.6533 99.0098 69.9051 60.4959 118.207 60.5004C165.081 60.505 202.076 96.9933 202.076 141.997C202.076 187.001 165.081 225.433 118.207 227.902C69.9028 230.446 29.6533 194.044 29.6533 146.528Z" fill="url(#paint4_linear_6_11)"/>
<g opacity="0.5">
<path opacity="0.5" d="M43.4332 146.165C43.4332 106.242 77.2496 73.8826 117.833 73.8894C157.214 73.894 188.297 104.55 188.297 142.36C188.297 180.171 157.217 212.46 117.833 214.533C77.2496 216.671 43.4332 186.088 43.4332 146.165Z" fill="white"/>
</g>
<path opacity="0.5" d="M115.04 80.0233C154.421 80.0279 185.504 110.684 185.504 148.494C185.504 157.485 183.73 166.156 180.521 174.19C185.49 164.516 188.299 153.69 188.299 142.36C188.299 104.55 157.219 73.894 117.835 73.8894C86.5349 73.8871 59.2772 93.1429 48.4366 120.264C60.7113 96.42 86.1558 80.021 115.04 80.0233Z" fill="white"/>
<path d="M84.1838 136.394V171.238C84.1838 181.311 92.6585 189.258 103.081 188.986L128.925 188.313C139.222 188.043 147.544 179.747 147.544 169.778V135.302L84.1838 136.394ZM107.984 172.416L112.787 157.862C110.729 156.8 109.336 154.709 109.336 152.272C109.336 148.696 112.337 145.738 116.032 145.67C119.722 145.599 122.711 148.435 122.711 152.005C122.711 154.437 121.323 156.581 119.272 157.728L124.057 172.041L107.984 172.416Z" fill="white"/>
<path d="M140.197 132.281C137.455 132.326 135.23 130.205 135.23 127.54C135.23 117.298 126.632 109.076 116.029 109.213C105.39 109.35 96.7051 117.848 96.7051 128.154C96.7051 130.835 94.4512 133.046 91.6674 133.094C88.8813 133.139 86.6205 131.002 86.6205 128.316C86.6205 112.63 99.8497 99.7179 116.032 99.5375C132.127 99.3571 145.155 111.849 145.155 127.384C145.155 130.043 142.938 132.235 140.197 132.281Z" fill="white"/>
<path d="M200.056 331.02C200.056 331.02 198.298 324.43 199.545 322.744C200.789 321.059 208.405 314.322 207.675 316.519C206.942 318.716 205.843 320.18 205.843 320.18C205.843 320.18 209.945 322.084 207.307 324.939C204.672 327.796 203.79 328.453 203.644 331.018C203.5 333.582 201.815 334.462 200.056 331.02Z" fill="url(#paint5_linear_6_11)"/>
<path d="M126.899 615.511C126.899 615.511 125.968 621.211 126.086 623.239C126.205 625.267 148.717 626.304 148.944 624.785C149.17 623.267 145.223 620.848 142.444 619.997C139.665 619.142 131.531 616.868 131.531 616.868L126.899 615.511Z" fill="url(#paint6_linear_6_11)"/>
<path d="M132.363 609.83L131.646 616.918C131.646 616.918 129.031 618.647 126.727 617.313L125.574 609.599L132.363 609.83Z" fill="url(#paint7_linear_6_11)"/>
<path d="M86.7324 624.751C86.7324 624.751 85.8006 630.451 85.9194 632.479C86.0381 634.507 108.55 635.544 108.777 634.025C109.005 632.507 105.056 630.088 102.277 629.237C99.498 628.385 91.3636 626.108 91.3636 626.108L86.7324 624.751Z" fill="url(#paint8_linear_6_11)"/>
<path d="M92.198 619.069L91.4809 626.158C91.4809 626.158 88.8662 627.887 86.562 626.553L85.4087 618.839L92.198 619.069Z" fill="url(#paint9_linear_6_11)"/>
<path d="M128.279 424.794C130.88 430.069 133.484 435.345 136.085 440.62C138.177 470.725 139.218 503.464 138.549 538.475C138.051 564.522 136.66 589.197 134.66 612.358C131.131 612.196 127.603 612.034 124.075 611.871C118.973 601.746 112.951 586.406 112.396 567.47C111.819 547.719 117.806 545.095 117.427 526.184C116.934 501.671 106.655 495.131 101.179 465.646C99.0848 454.37 97.6758 439.642 99.3497 421.775C108.994 422.782 118.635 423.789 128.279 424.794Z" fill="url(#paint10_linear_6_11)"/>
<path opacity="0.3" d="M99.3516 421.775C104.558 422.319 109.765 422.862 114.974 423.406C124.349 439.718 126.966 456.694 125.319 464.205C122.992 474.831 116.835 478.234 117.176 488.901C117.511 499.456 123.73 502.194 127.674 514.633C130.405 523.247 129.683 531.167 128.13 546.655C125.002 577.852 117.468 587.393 123.778 597.621C125.57 600.528 128.802 603.988 135.132 606.63C134.977 608.544 134.824 610.462 134.662 612.355C131.133 612.196 127.605 612.031 124.077 611.871C118.975 601.746 112.953 586.406 112.398 567.47C111.82 547.719 117.808 545.095 117.429 526.184C116.936 501.671 106.657 495.133 101.181 465.649C99.0867 454.372 97.6754 439.645 99.3516 421.775Z" fill="url(#paint11_linear_6_11)"/>
<path d="M114.277 434.292C109.393 460.928 105.079 489.435 101.713 519.669C97.6477 556.173 95.4782 590.588 94.6264 622.538C90.7533 622.648 86.8825 622.757 83.0094 622.867C67.75 592.679 66.8183 572.213 69.0174 558.888C69.8647 553.754 72.1689 543.686 72.6941 528.637C73.0595 518.148 72.3904 510.164 71.5546 500.568C69.7231 479.529 67.4988 474.936 67.1791 458.843C66.8777 443.739 66.816 436.098 71.1275 431.638C82.4865 419.884 112.037 433.25 114.277 434.292Z" fill="url(#paint12_linear_6_11)"/>
<path d="M198.031 330.004C200.607 329.824 203.181 329.646 205.757 329.465C211.832 354.017 207.474 377.831 193.763 386.589C172.34 400.272 132.525 374.492 123.897 346.419C120.111 334.097 120.972 316.316 128.542 312.861C130.643 311.902 133.904 311.753 140.967 315.718C162.061 327.561 162.616 349.945 173.34 351.841C178.104 352.686 185.805 349.646 198.031 330.004Z" fill="url(#paint13_linear_6_11)"/>
<path d="M139.049 446.021C142.76 439.864 138.099 433.926 137.039 422.264C135.838 409.044 140.93 406.842 145.966 384.935C149.316 370.365 152.529 356.378 148.693 340.004C146.854 332.157 143.735 318.848 132.718 312.42C127.034 309.102 119.272 309.435 103.983 310.234C85.0744 311.223 75.6224 311.716 68.5704 315.43C67.5382 315.973 46.0901 327.64 44.6126 346.659C43.1099 366.015 64.1881 368.616 66.9993 394.428C68.2621 406.016 66.0127 423.837 64.5535 435.395C63.1536 446.493 62.1876 449.334 64.3799 452.696C69.6597 460.796 85.8212 458.487 118.144 453.872C130.823 452.059 136.279 450.615 139.049 446.021Z" fill="url(#paint14_linear_6_11)"/>
<path d="M89.8668 390.274C88.4989 395.305 83.5844 399.062 80.1635 411.3C79.4259 413.942 74.162 432.757 80.9879 437.389C84.9295 440.063 88.4692 434.995 98.0377 434.333C114.617 433.187 122.516 447.121 133.348 443.315C135.227 442.652 137.707 441.246 140.185 438.012C140.678 440.926 140.594 443.459 139.05 446.023C136.282 450.618 130.824 452.061 118.145 453.872C85.8224 458.487 69.6609 460.796 64.3811 452.696C62.1911 449.337 63.1548 446.494 64.5547 435.395C66.0139 423.835 68.2634 406.013 67.0005 394.428C64.1893 368.616 43.1088 366.015 44.6138 346.659C45.0157 341.484 46.918 336.878 49.4643 332.865C76.2036 343.685 94.1623 374.465 89.8668 390.274Z" fill="url(#paint15_linear_6_11)"/>
<path d="M56.0952 428.347L61.4458 431.764C62.4072 430.654 64.6315 428.416 68.1027 427.653C72.0146 426.792 76.5066 428.028 76.6093 429.274C76.6938 430.275 73.958 431.284 73.5355 431.439C70.1214 432.7 67.5889 431.652 66.2095 433.024C65.7208 433.508 65.1134 434.413 63.7135 435.248C63.3458 435.468 62.9622 435.662 62.7589 435.742C60.4798 436.628 56.5725 432.661 56.2368 432.314L56.0952 428.347Z" fill="url(#paint16_linear_6_11)"/>
<path d="M71.9001 358.179C75.7709 348.91 78.4519 334.717 72.3385 313.641C32.0594 329.513 11.5178 367.138 19.5381 396.963C26.1492 421.551 50.2053 433.527 55.5719 436.048C56.8211 433.205 58.0702 430.364 59.3171 427.523C53.0987 420.599 46.0902 410.359 47.0813 398.673C48.456 382.473 64.0648 376.944 71.9001 358.179Z" fill="url(#paint17_linear_6_11)"/>
<path d="M102.991 291.165C102.991 291.165 102.674 298.211 100.486 303.488C98.5086 308.256 88.1134 311.255 86.0056 312.319C83.8978 313.383 89.9541 316.496 96.0354 317.106C102.117 317.718 119.482 316.336 122.613 314.032C125.744 311.728 120.096 311.901 115.757 310.307C111.416 308.713 108.906 300.225 109.673 296.372C110.441 292.517 102.991 291.165 102.991 291.165Z" fill="url(#paint18_linear_6_11)"/>
<path d="M112.61 288.61C115.766 285.509 116.207 285.148 116.549 284.077C117.929 279.777 114.592 273.885 110.217 272.435C109.988 272.36 107.054 271.421 105.935 272.693C104.983 273.773 106.383 275.267 105.718 277.352C105.095 279.302 103.405 279.448 100.269 282.006C97.6864 284.111 96.0833 285.422 95.7133 287.265C94.9506 291.063 99.5476 296.567 103.617 296.418C105.081 296.363 105.481 295.617 112.61 288.61Z" fill="url(#paint19_linear_6_11)"/>
<path d="M104.017 297.005C104.017 297.005 107.372 300.803 112.481 299.547C117.055 298.423 115.888 287.923 112.54 286.247C111.423 285.687 109.393 285.733 107.868 286.468C106.966 286.902 106.714 287.354 105.228 288.035C103.858 288.663 103.421 288.576 103.054 289.019C102.592 289.572 102.394 290.764 103.839 293.637C102.798 292.899 101.677 292.744 100.989 293.232C100.88 293.31 100.601 293.584 100.48 293.943C100.044 295.242 101.396 296.564 104.017 297.005Z" fill="url(#paint20_linear_6_11)"/>
<path d="M486.589 154.836L487.77 161.209L463.465 161.266L252.546 161.767C247.12 161.78 242.131 166.265 241.386 171.785L191.036 508.289C190.287 513.859 198.956 522.361 204.35 522.776L297.923 529.968V529.854L437.893 540.591C437.895 540.591 437.897 540.591 437.9 540.591L438.238 540.733C444.214 541.194 449.697 536.858 450.473 530.975C450.473 530.973 450.473 531 450.476 530.998L497.629 171.721C498.396 165.893 492.6 154.82 486.589 154.836Z" fill="url(#paint21_linear_6_11)"/>
<path d="M445.705 523.974C444.933 529.859 439.452 534.257 433.476 533.798L199.346 515.821C193.954 515.408 190.202 510.557 190.951 504.987L236.723 164.905C237.465 159.385 242.455 154.9 247.876 154.884L483.328 154.236C489.336 154.22 493.598 158.931 492.835 164.759L445.705 523.974Z" fill="url(#paint22_linear_6_11)"/>
<path d="M448.815 336.948C448.432 339.862 445.71 342.036 442.736 341.926L236.675 334.406C233.955 334.308 232.041 332.067 232.416 329.284L236.467 299.256C236.842 296.474 239.324 294.593 242.046 294.668L448.288 300.395C451.266 300.478 453.374 302.581 452.992 305.492L448.815 336.948Z" fill="white"/>
<path d="M440.836 397.96C440.452 400.881 437.728 403.373 434.755 403.224L228.849 393.053C226.131 392.918 224.24 390.317 224.615 387.531L228.698 356.923C229.072 354.139 231.578 351.753 234.297 351.863L440.329 360.173C443.302 360.294 445.406 362.984 445.022 365.9L440.836 397.96Z" fill="white"/>
<path opacity="0.1" d="M453.009 305.372C452.52 305.214 451.995 305.127 451.435 305.111L245.189 299.386C242.469 299.309 239.985 301.195 239.615 303.969L235.556 333.997C235.547 334.075 235.541 334.148 235.534 334.226C233.442 333.637 232.097 331.654 232.412 329.279L236.47 299.251C236.84 296.477 239.325 294.588 242.044 294.668L448.291 300.393C451.216 300.48 453.315 302.517 453.009 305.372Z" fill="url(#paint23_linear_6_11)"/>
<path opacity="0.1" d="M445.066 365.224C444.571 365.028 444.036 364.909 443.47 364.886L237.443 356.573C234.723 356.464 232.213 358.855 231.843 361.639L227.753 392.249C227.731 392.445 227.715 392.635 227.715 392.831C225.623 392.155 224.294 389.906 224.609 387.531L228.699 356.921C229.069 354.137 231.576 351.746 234.298 351.855L440.326 360.168C443.077 360.287 445.073 362.582 445.066 365.224Z" fill="url(#paint24_linear_6_11)"/>
<path d="M386.075 447.414C386.682 442.807 383.425 438.564 378.796 438.297L272.207 432.177C267.792 431.923 263.716 435.641 263.115 440.126L258.717 473.281C258.117 477.773 261.179 482.07 265.591 482.372L372.126 489.661C376.753 489.979 381.014 486.071 381.624 481.458L386.075 447.414Z" fill="url(#paint25_linear_6_11)"/>
<path d="M394.125 224.042C392.72 234.64 387.276 244.206 379.534 251.242C371.192 258.831 360.203 263.448 348.776 263.227C337.405 263.008 327.835 258.041 321.689 250.283C316.021 243.133 313.244 233.606 314.635 223.185C317.528 201.506 337.446 183.982 359.303 184.034C381.368 184.082 397.043 201.993 394.125 224.042Z" fill="url(#paint26_linear_6_11)"/>
<path d="M372.87 211.995C371.61 221.491 362.845 229.1 353.329 228.986C343.852 228.872 337.216 221.137 338.469 211.71C339.725 202.285 348.401 194.683 357.883 194.726C367.406 194.77 374.131 202.5 372.87 211.995Z" fill="white"/>
<path d="M379.536 251.243C371.194 258.831 360.205 263.449 348.777 263.227C337.407 263.008 327.836 258.041 321.691 250.283C328.725 240.484 340.326 233.967 352.646 234.127C365.032 234.286 375.017 241.151 379.536 251.243Z" fill="white"/>
<path opacity="0.4" d="M492.833 164.758L445.705 523.973C444.933 529.855 439.103 534.229 433.129 533.77L292.508 522.972C285.828 516.133 280.327 507.925 276.401 498.076C274.474 493.246 273.063 488.035 272.124 482.554C269.514 467.386 270.525 450.144 274.332 433.22C277.26 420.192 281.85 407.33 287.726 395.725C292.426 386.446 297.952 377.962 304.125 370.833C308.569 365.701 313.376 360.716 318.446 355.827C324.559 349.926 331.056 344.166 337.759 338.46C353.377 325.153 370.1 312.143 385.583 298.404C421.309 266.712 450.293 231.299 443.318 180.771C443.095 179.179 440.918 166.991 438.137 154.358L482.979 154.235C488.985 154.219 493.598 158.932 492.833 164.758Z" fill="white"/>
<defs>
<linearGradient id="paint0_linear_6_11" x1="387.738" y1="340.467" x2="483.236" y2="350.885" gradientUnits="userSpaceOnUse">
<stop stop-color="#444B8C"/>
<stop offset="0.9964" stop-color="#26264F"/>
</linearGradient>
<linearGradient id="paint1_linear_6_11" x1="303.595" y1="99.7457" x2="539.734" y2="903.662" gradientUnits="userSpaceOnUse">
<stop stop-color="#444B8C"/>
<stop offset="0.9964" stop-color="#26264F"/>
</linearGradient>
<linearGradient id="paint2_linear_6_11" x1="392.082" y1="79.9444" x2="669.609" y2="831.581" gradientUnits="userSpaceOnUse">
<stop stop-color="#FFC444"/>
<stop offset="0.9964" stop-color="#F36F56"/>
</linearGradient>
<linearGradient id="paint3_linear_6_11" x1="-2032.59" y1="2171.28" x2="-1842.76" y2="1992.27" gradientUnits="userSpaceOnUse">
<stop stop-color="#311944"/>
<stop offset="1" stop-color="#893976"/>
</linearGradient>
<linearGradient id="paint4_linear_6_11" x1="58.1701" y1="196.561" x2="210.287" y2="58.5184" gradientUnits="userSpaceOnUse">
<stop stop-color="#FF9085"/>
<stop offset="1" stop-color="#FB6FBB"/>
</linearGradient>
<linearGradient id="paint5_linear_6_11" x1="212.292" y1="316.593" x2="182.148" y2="347.275" gradientUnits="userSpaceOnUse">
<stop stop-color="#FFC444"/>
<stop offset="0.9964" stop-color="#F36F56"/>
</linearGradient>
<linearGradient id="paint6_linear_6_11" x1="137.573" y1="608.041" x2="137.827" y2="539.973" gradientUnits="userSpaceOnUse">
<stop stop-color="#AA80F9"/>
<stop offset="0.9964" stop-color="#6165D7"/>
</linearGradient>
<linearGradient id="paint7_linear_6_11" x1="130.831" y1="629.915" x2="127.589" y2="594.742" gradientUnits="userSpaceOnUse">
<stop stop-color="#FFC444"/>
<stop offset="0.9964" stop-color="#F36F56"/>
</linearGradient>
<linearGradient id="paint8_linear_6_11" x1="97.4424" y1="607.892" x2="97.6964" y2="539.823" gradientUnits="userSpaceOnUse">
<stop stop-color="#AA80F9"/>
<stop offset="0.9964" stop-color="#6165D7"/>
</linearGradient>
<linearGradient id="paint9_linear_6_11" x1="90.1588" y1="633.661" x2="86.9177" y2="598.488" gradientUnits="userSpaceOnUse">
<stop stop-color="#FFC444"/>
<stop offset="0.9964" stop-color="#F36F56"/>
</linearGradient>
<linearGradient id="paint10_linear_6_11" x1="129.6" y1="452.686" x2="104.65" y2="580.242" gradientUnits="userSpaceOnUse">
<stop stop-color="#311944"/>
<stop offset="1" stop-color="#893976"/>
</linearGradient>
<linearGradient id="paint11_linear_6_11" x1="142.05" y1="515.06" x2="104.566" y2="518.064" gradientUnits="userSpaceOnUse">
<stop stop-color="#311944"/>
<stop offset="1" stop-color="#893976"/>
</linearGradient>
<linearGradient id="paint12_linear_6_11" x1="121.317" y1="522.11" x2="64.4127" y2="526.672" gradientUnits="userSpaceOnUse">
<stop stop-color="#311944"/>
<stop offset="1" stop-color="#893976"/>
</linearGradient>
<linearGradient id="paint13_linear_6_11" x1="166.265" y1="334.292" x2="124.165" y2="604.672" gradientUnits="userSpaceOnUse">
<stop stop-color="#AA80F9"/>
<stop offset="0.9964" stop-color="#6165D7"/>
</linearGradient>
<linearGradient id="paint14_linear_6_11" x1="76.7244" y1="631.073" x2="56.3619" y2="903.951" gradientUnits="userSpaceOnUse">
<stop stop-color="#AA80F9"/>
<stop offset="0.9964" stop-color="#6165D7"/>
</linearGradient>
<linearGradient id="paint15_linear_6_11" x1="7.49448" y1="538.031" x2="119.878" y2="345.528" gradientUnits="userSpaceOnUse">
<stop stop-color="#AA80F9"/>
<stop offset="0.9964" stop-color="#6165D7"/>
</linearGradient>
<linearGradient id="paint16_linear_6_11" x1="47.3342" y1="404.93" x2="71.0367" y2="436.949" gradientUnits="userSpaceOnUse">
<stop stop-color="#FFC444"/>
<stop offset="0.9964" stop-color="#F36F56"/>
</linearGradient>
<linearGradient id="paint17_linear_6_11" x1="26.9744" y1="627.361" x2="6.6119" y2="900.239" gradientUnits="userSpaceOnUse">
<stop stop-color="#AA80F9"/>
<stop offset="0.9964" stop-color="#6165D7"/>
</linearGradient>
<linearGradient id="paint18_linear_6_11" x1="114.644" y1="325.143" x2="91.8257" y2="296.752" gradientUnits="userSpaceOnUse">
<stop stop-color="#FFC444"/>
<stop offset="0.9964" stop-color="#F36F56"/>
</linearGradient>
<linearGradient id="paint19_linear_6_11" x1="97.2931" y1="314.715" x2="109.387" y2="274.93" gradientUnits="userSpaceOnUse">
<stop stop-color="#444B8C"/>
<stop offset="0.9964" stop-color="#3E4177"/>
</linearGradient>
<linearGradient id="paint20_linear_6_11" x1="128.137" y1="300.832" x2="94.119" y2="285.69" gradientUnits="userSpaceOnUse">
<stop stop-color="#FFC444"/>
<stop offset="0.9964" stop-color="#F36F56"/>
</linearGradient>
<linearGradient id="paint21_linear_6_11" x1="190.991" y1="347.802" x2="497.698" y2="347.802" gradientUnits="userSpaceOnUse">
<stop stop-color="#311944"/>
<stop offset="1" stop-color="#893976"/>
</linearGradient>
<linearGradient id="paint22_linear_6_11" x1="377.459" y1="951.04" x2="340.888" y2="317.573" gradientUnits="userSpaceOnUse">
<stop offset="0.003597" stop-color="#F36F56"/>
<stop offset="1" stop-color="#FFC444"/>
</linearGradient>
<linearGradient id="paint23_linear_6_11" x1="232.365" y1="314.448" x2="453.037" y2="314.448" gradientUnits="userSpaceOnUse">
<stop offset="0.003597" stop-color="#F36F56"/>
<stop offset="1" stop-color="#FFC444"/>
</linearGradient>
<linearGradient id="paint24_linear_6_11" x1="224.565" y1="372.342" x2="445.066" y2="372.342" gradientUnits="userSpaceOnUse">
<stop offset="0.003597" stop-color="#F36F56"/>
<stop offset="1" stop-color="#FFC444"/>
</linearGradient>
<linearGradient id="paint25_linear_6_11" x1="332.946" y1="393.719" x2="283.654" y2="706.302" gradientUnits="userSpaceOnUse">
<stop offset="0.003597" stop-color="#F36F56"/>
<stop offset="1" stop-color="#FFC444"/>
</linearGradient>
<linearGradient id="paint26_linear_6_11" x1="349.161" y1="68.2623" x2="359.688" y2="381.736" gradientUnits="userSpaceOnUse">
<stop offset="0.003597" stop-color="#F36F56"/>
<stop offset="1" stop-color="#FFC444"/>
</linearGradient>
</defs>
</svg>
