<svg width="56" height="51" viewBox="0 0 56 51" fill="none" xmlns="http://www.w3.org/2000/svg">
<path d="M52.92 25.5C54.621 25.5 56.0209 26.885 55.7963 28.5711C55.1036 33.7718 52.6635 38.6797 48.7689 42.6024C44.1147 47.2901 37.7149 50.2369 30.8105 50.8712C23.9061 51.5056 16.989 49.7824 11.4005 46.0357C5.81196 42.289 1.95027 36.7858 0.564208 30.5933C-0.821857 24.4007 0.366464 17.9601 3.89875 12.5202C7.43103 7.08029 13.0556 3.02878 19.6818 1.15127C26.3079 -0.726238 33.4636 -0.295963 39.7612 2.35866C44.9974 4.56586 49.3301 8.18002 52.2032 12.6784C53.148 14.1577 52.3775 16.0566 50.7409 16.6906C49.253 17.267 47.5923 16.575 46.7126 15.2438C44.4723 11.8536 41.1584 9.12941 37.1737 7.44976C32.2616 5.37915 26.6802 5.04354 21.5118 6.508C16.3434 7.97245 11.9562 11.1326 9.20102 15.3758C6.44584 19.6189 5.51895 24.6426 6.60008 29.4728C7.68121 34.3029 10.6933 38.5954 15.0524 41.5178C19.4114 44.4402 24.8067 45.7844 30.1922 45.2896C35.5776 44.7948 40.5695 42.4963 44.1997 38.8399C47.0698 35.9491 48.9271 32.3724 49.5791 28.5654C49.8663 26.8887 51.219 25.5 52.92 25.5Z" fill="#58148E"/>
<path d="M28 11.883C28 10.9535 27.2449 10.192 26.3192 10.2768C23.735 10.5134 21.2381 11.2934 19.0293 12.5638C16.3444 14.108 14.1951 16.3135 12.8305 18.9248C11.4658 21.536 10.9417 24.446 11.3189 27.3175C11.6278 29.6688 12.5307 31.9155 13.9473 33.8846C14.4836 34.6302 15.5267 34.7304 16.2649 34.1841C17.1052 33.5623 17.2169 32.3573 16.6565 31.4748C15.7707 30.08 15.2006 28.5304 14.9887 26.9176C14.6945 24.6779 15.1033 22.4081 16.1677 20.3713C17.2322 18.3346 18.9086 16.6142 21.0028 15.4098C22.6206 14.4793 24.4364 13.8861 26.3207 13.6644C27.2439 13.5558 28 12.8125 28 11.883Z" fill="#F36F56"/>
<path d="M35.9588 20.2016C36.5407 19.8142 36.668 19.0061 36.1663 18.5193C35.0394 17.426 33.6574 16.5684 32.1156 16.0136C30.1467 15.3052 27.9977 15.1194 25.9177 15.4779C23.8376 15.8363 21.9117 16.7243 20.3632 18.0389C19.1557 19.064 18.2162 20.3159 17.6056 21.7016C17.3242 22.3404 17.736 23.0413 18.4148 23.2039C19.0508 23.3563 19.6853 22.9757 19.9623 22.3832C20.439 21.3636 21.1464 20.4418 22.0433 19.6803C23.2512 18.655 24.7534 17.9623 26.3758 17.6827C27.9982 17.4031 29.6745 17.548 31.2102 18.1006C32.3887 18.5247 33.4474 19.1755 34.3165 20.0039C34.7626 20.4292 35.4458 20.5431 35.9588 20.2016Z" fill="#F36F56"/>
</svg>
